<?xml version="1.0" encoding="UTF-8"?>
<!DOCTYPE svg PUBLIC "-//W3C//DTD SVG 1.1//EN" "http://www.w3.org/Graphics/SVG/1.1/DTD/svg11.dtd">
<!-- Creator: CorelDRAW 2019 (64-Bit) -->
<svg xmlns="http://www.w3.org/2000/svg" xml:space="preserve" width="400px" height="550px" version="1.1" style="shape-rendering:geometricPrecision; text-rendering:geometricPrecision; image-rendering:optimizeQuality; fill-rule:evenodd; clip-rule:evenodd"
viewBox="0 0 400 550"
 xmlns:xlink="http://www.w3.org/1999/xlink"
 xmlns:xodm="http://www.corel.com/coreldraw/odm/2003">
 <defs>
  <style type="text/css">
   <![CDATA[
    .str0 {stroke:#86B616;stroke-width:1.39;stroke-miterlimit:2.61313}
    .fil0 {fill:none}
   ]]>
  </style>
 </defs>
 <g id="Layer_x0020_1">
  <metadata id="CorelCorpID_0Corel-Layer"/>
  <path class="fil0 str0" d="M105.65 97.5l2.87 -2.6 2.92 -2.52 2.94 -2.43 2.98 -2.35 3.01 -2.27 3.04 -2.18 3.08 -2.11 3.11 -2.02 3.14 -1.94 3.18 -1.85 3.21 -1.77 3.24 -1.69 3.28 -1.61 3.3 -1.53 3.34 -1.44 3.37 -1.36 3.41 -1.28 3.43 -1.2 3.47 -1.11 3.5 -1.03 3.54 -0.95 3.56 -0.87 3.6 -0.78 3.63 -0.7 3.66 -0.62 3.69 -0.54 3.73 -0.45 3.76 -0.37 3.79 -0.29 3.82 -0.2 3.85 -0.13 3.88 -0.04 3.83 0.04 3.78 0.12 16.12 0.68 -3.99 -0.13 -4.03 -0.04 -4.09 0.04 -4.05 0.13 -4.02 0.22 -3.99 0.3 -3.95 0.39 -3.93 0.48 -3.88 0.56 -3.86 0.66 -3.82 0.73 -3.79 0.83 -3.75 0.91 -3.72 1 -3.68 1.08 -3.66 1.18 -3.61 1.26 -3.59 1.34 -3.55 1.43 -3.51 1.52 -3.48 1.61 -3.45 1.69 -3.41 1.78 -3.38 1.87 -3.34 1.95 -3.31 2.04 -3.27 2.13 -3.24 2.21 -3.21 2.3 -3.17 2.39 -3.13 2.47 -3.1 2.57 -3.07 2.64 -3.03 2.74 -2.18 2.03 -2.17 2.09 -2.14 2.12 -2.11 2.18 -2.09 2.22 -2.07 2.26 -2.04 2.31 -2.02 2.36 -1.99 2.4 -1.97 2.45 -1.95 2.49 -1.92 2.54 -1.89 2.59 -1.87 2.62 -1.85 2.68 -1.82 2.72 -1.8 2.77 -1.78 2.81 -1.75 2.85 -1.72 2.9 -1.7 2.95 -1.68 2.99 -1.65 3.04 -1.63 3.08 -1.6 3.13 -1.58 3.17 -1.55 3.22 -1.53 3.26 -1.51 3.31 -1.48 3.35 -1.46 3.4 -1.43 3.44 -1.4 3.47 -1.35 3.46 -1.31 3.46 -1.26 3.46 -1.22 3.45 -1.18 3.46 -1.12 3.45 -1.09 3.45 -1.04 3.44 -0.99 3.45 -0.96 3.44 -0.9 3.44 -0.86 3.44 -0.82 3.44 -0.77 3.43 -0.73 3.43 -0.69 3.43 -0.64 3.42 -0.59 3.43 -0.55 3.42 -0.51 3.42 -0.46 3.41 -0.42 3.42 -0.38 3.41 -0.32 3.41 -0.29 3.4 -0.24 3.4 -0.2 3.4 -0.15 3.4 -0.11 3.39 -0.07 3.39 -0.02 3.39 0.04 4.55 0.11 4.49 0.19 4.45 0.27 4.39 0.34 4.34 0.42 4.29 0.49 4.23 0.57 4.19 0.65 4.13 0.72 4.08 0.79 4.02 0.88 3.98 0.95 3.92 1.02 3.87 1.1 3.82 1.18 3.76 1.25 3.71 1.33 3.66 1.4 3.61 -6.67 -16.64 -1.33 -3.42 -1.26 -3.48 -1.19 -3.53 -1.11 -3.57 -1.05 -3.63 -0.97 -3.67 -0.9 -3.73 -0.83 -3.78 -0.76 -3.82 -0.69 -3.88 -0.61 -3.92 -0.54 -3.98 -0.47 -4.02 -0.4 -4.07 -0.32 -4.13 -0.26 -4.17 -0.18 -4.22 -0.1 -4.27 -0.04 -4.32 0.02 -3.22 0.06 -3.22 0.11 -3.22 0.14 -3.23 0.19 -3.23 0.23 -3.23 0.27 -3.24 0.32 -3.24 0.35 -3.24 0.4 -3.24 0.44 -3.24 0.48 -3.25 0.52 -3.25 0.57 -3.25 0.61 -3.26 0.65 -3.25 0.69 -3.26 0.73 -3.27 0.78 -3.26 0.82 -3.27 0.86 -3.27 0.9 -3.27 0.95 -3.27 0.99 -3.27 1.03 -3.28 1.07 -3.28 1.12 -3.28 1.15 -3.28 1.2 -3.29 1.25 -3.28 1.28 -3.29 1.33 -3.29 1.36 -3.28 1.38 -3.22 1.41 -3.19 1.43 -3.14 1.45 -3.1 1.48 -3.05 1.5 -3.02 1.52 -2.97 1.55 -2.93 1.57 -2.88 1.59 -2.85 1.62 -2.8 1.64 -2.75 1.66 -2.72 1.68 -2.66 1.71 -2.63 1.73 -2.59 1.76 -2.54 1.78 -2.5 1.8 -2.45 1.82 -2.41 1.85 -2.37 1.87 -2.33 1.89 -2.28 1.92 -2.24 1.94 -2.19 1.96 -2.15 1.99 -2.11 2.01 -2.07 2.03 -2.02 2.06 -1.98 2.08 -1.93zm12.66 299.51l-10.14 -17.72 2.4 4.17 2.55 3.93 2.7 3.67 2.86 3.42 3.01 3.16 3.17 2.91 3.32 2.66 3.47 2.4 3.63 2.16 3.78 1.89 3.94 1.65 4.09 1.39 4.25 1.14 4.4 0.88 4.55 0.64 4.71 0.38 4.86 0.12 2.98 -0.06 2.96 -0.18 2.93 -0.31 2.91 -0.44 2.88 -0.56 2.85 -0.68 2.84 -0.81 2.8 -0.93 2.78 -1.06 2.76 -1.18 2.73 -1.31 2.7 -1.43 2.68 -1.55 2.65 -1.68 2.63 -1.8 2.6 -1.93 2.57 -2.05 2.55 -2.18 2.52 -2.3 2.5 -2.43 2.47 -2.55 2.44 -2.68 2.42 -2.8 2.39 -2.92 2.36 -3.06 2.34 -3.17 2.31 -3.3 2.29 -3.43 2.26 -3.55 2.23 -3.68 2.2 -3.8 2.18 -3.92 2.13 -4 2.07 -4.05 1.99 -4.1 1.93 -4.15 1.86 -4.2 1.79 -4.24 1.73 -4.3 1.66 -4.35 1.59 -4.4 1.52 -4.45 1.45 -4.49 1.39 -4.55 1.32 -4.6 1.25 -4.64 1.18 -4.7 1.12 -4.75 1.05 -4.79 0.98 -4.85 0.91 -4.89 0.85 -4.94 0.78 -5 0.71 -5.04 0.64 -5.09 0.57 -5.15 0.51 -5.18 0.44 -5.25 0.37 -5.29 0.31 -5.33 0.24 -5.39 0.16 -5.44 0.11 -5.49 0.03 -5.53 -0.07 -7.47 -0.21 -7.24 -0.35 -7 -0.5 -6.76 -0.63 -6.52 -0.78 -6.29 -0.91 -6.05 -1.06 -5.81 -1.2 -5.58 -1.33 -5.33 -1.48 -5.11 -1.62 -4.86 -1.76 -4.62 -1.91 -4.39 -2.04 -4.16 -2.18 -3.91 -2.32 -3.68 -2.47 -3.44 -2.61 -3.2 -2.74 -2.96 -2.89 -2.73 -3.03 -2.49 -3.17 -2.26 -3.31 -2.02 -3.45 -1.77 -3.59 -1.55 -3.73 -1.3 -3.88 -1.07 -4.01 -0.83 -4.16 -0.59 16.23 1.89 4.37 0.62 4.23 0.88 4.08 1.12 3.93 1.38 3.78 1.62 3.63 1.87 3.48 2.12 3.34 2.38 3.19 2.62 3.04 2.87 2.89 3.12 2.74 3.37 2.6 3.62 2.44 3.87 2.3 4.12 2.15 4.37 2 4.63 1.86 4.86 1.7 5.12 1.56 5.37 1.41 5.62 1.26 5.87 1.11 6.12 0.96 6.37 0.82 6.61 0.67 6.87 0.52 7.12 0.37 7.37 0.22 7.61 0.07 7.87 -0.03 5.83 -0.11 5.77 -0.18 5.72 -0.25 5.67 -0.32 5.63 -0.39 5.56 -0.46 5.52 -0.54 5.46 -0.6 5.41 -0.68 5.37 -0.75 5.3 -0.81 5.26 -0.89 5.2 -0.97 5.16 -1.03 5.1 -1.1 5.04 -1.18 5 -1.24 4.94 -1.32 4.89 -1.39 4.84 -1.46 4.79 -1.53 4.73 -1.6 4.69 -1.67 4.63 -1.75 4.57 -1.82 4.53 -1.88 4.47 -1.96 4.42 -2.03 4.36 -2.1 4.32 -2.17 4.26 -2.25 4.21 -2.29 4.13 -2.32 4 -2.35 3.87 -2.38 3.74 -2.4 3.61 -2.44 3.47 -2.46 3.34 -2.49 3.22 -2.51 3.08 -2.55 2.94 -2.57 2.82 -2.6 2.69 -2.63 2.55 -2.65 2.43 -2.68 2.29 -2.71 2.16 -2.74 2.03 -2.77 1.9 -2.79 1.76 -2.82 1.64 -2.84 1.51 -2.87 1.37 -2.9 1.24 -2.93 1.12 -2.95 0.98 -2.98 0.85 -3.01 0.72 -3.04 0.58 -3.06 0.46 -3.08 0.33 -3.11 0.2 -3.14 0.06 -5.12 -0.13 -4.96 -0.4 -4.79 -0.67 -4.63 -0.93 -4.47 -1.2 -4.3 -1.46 -4.15 -1.74 -3.98 -1.99 -3.82 -2.27 -3.66 -2.53 -3.49 -2.8 -3.33 -3.06 -3.18 -3.33 -3 -3.6 -2.85 -3.86 -2.68 -4.14 -2.53 -4.39zm111.38 -341.07c43.29,0 77.75,14.48 103.39,43.28 25.8,28.8 38.62,67.43 38.62,116.04 0,68.75 -19.14,127.36 -57.6,175.63 -38.29,48.45 -84.91,72.59 -139.51,72.59 -41.29,0 -74.92,-15.32 -100.72,-46.11 -25.81,-30.8 -38.79,-70.76 -38.79,-119.54 0,-36.12 7.49,-72.75 22.64,-109.71 15.15,-36.96 34.46,-66.26 57.93,-87.73 32.14,-29.64 70.26,-44.45 114.04,-44.45zm1.17 23.97c-37.29,0 -68.42,20.98 -93.4,62.93 -24.97,41.95 -37.46,93.9 -37.46,156.16 0,91.06 27.81,136.51 83.25,136.51 33.62,0 62.76,-22.31 87.06,-67.09 24.31,-44.62 36.46,-98.22 36.46,-160.65 0,-85.24 -25.3,-127.86 -75.91,-127.86z"/>
 </g>
</svg>
