<?xml version="1.0" encoding="UTF-8"?>
<!DOCTYPE svg PUBLIC "-//W3C//DTD SVG 1.1//EN" "http://www.w3.org/Graphics/SVG/1.1/DTD/svg11.dtd">
<!-- Creator: CorelDRAW 2019 (64-Bit) -->
<svg xmlns="http://www.w3.org/2000/svg" xml:space="preserve" width="400px" height="550px" version="1.1" style="shape-rendering:geometricPrecision; text-rendering:geometricPrecision; image-rendering:optimizeQuality; fill-rule:evenodd; clip-rule:evenodd"
viewBox="0 0 400 550"
 xmlns:xlink="http://www.w3.org/1999/xlink"
 xmlns:xodm="http://www.corel.com/coreldraw/odm/2003">
 <defs>
  <style type="text/css">
   <![CDATA[
    .str0 {stroke:#CCA300;stroke-width:1;stroke-miterlimit:1}
    .fil1 {fill:none}
    .fil0 {fill:black}
   ]]>
  </style>
 </defs>
 <g id="Layer_x0020_1">
  <metadata id="CorelCorpID_0Corel-Layer"/>
  <g>
   <path class="fil0" d="M49.68 449.72l35.05 -27.45 0.92 -0.67 0.9 -0.57 0.9 -0.46 0.89 -0.36 0.88 -0.26 0.87 -0.15 0.86 -0.05 0.93 0.05 0.92 0.14 0.92 0.24 0.91 0.34 0.9 0.43 0.9 0.53 0.89 0.62 0.89 0.71 0.88 0.82 0.87 0.9 0.86 1.01 0.86 1.09 0.85 1.2 0.84 1.28 0.84 1.38 0.83 1.47 1.25 2.08 1.35 1.94 1.44 1.81 1.55 1.67 1.63 1.54 1.74 1.4 1.84 1.27 1.93 1.13 2.03 1 2.13 0.87 2.23 0.73 2.33 0.6 2.43 0.46 2.53 0.34 2.62 0.2 2.73 0.06 1.49 -0.02 1.47 -0.06 1.46 -0.11 1.44 -0.15 1.44 -0.19 1.41 -0.24 1.41 -0.28 1.38 -0.32 1.38 -0.37 1.36 -0.41 1.35 -0.45 1.33 -0.49 2.05 -0.54 -13.95 18.63 -1.97 1.14 -1.25 1.09 -1.26 1.04 -1.28 1 -1.3 0.95 -1.31 0.9 -1.32 0.86 -1.34 0.81 -1.36 0.76 -1.37 0.72 -1.39 0.67 -1.4 0.63 -1.41 0.58 -1.44 0.53 -1.44 0.49 -1.47 0.44 -1.48 0.39 -1.49 0.35 -1.51 0.3 -1.52 0.25 -1.54 0.21 -1.55 0.16 -1.57 0.12 -1.59 0.06 -1.6 0.03 -2.93 -0.07 -2.82 -0.22 -2.72 -0.36 -2.61 -0.5 -2.51 -0.64 -2.39 -0.79 -2.29 -0.93 -2.19 -1.07 -2.08 -1.23 -1.97 -1.36 -1.87 -1.51 -1.76 -1.65 -1.66 -1.8 -1.55 -1.94 -1.45 -2.09 -1.34 -2.23 -0.9 -1.58 -0.9 -1.49 -0.91 -1.38 -0.91 -1.28 -0.92 -1.18 -0.93 -1.08 -0.94 -0.97 -0.94 -0.88 -0.95 -0.77 -0.96 -0.67 -0.97 -0.56 -0.97 -0.47 -0.98 -0.36 -0.99 -0.26 -0.99 -0.15 -1 -0.05 -0.93 0.05 -0.93 0.17 -0.95 0.27 -0.95 0.39 -0.97 0.5 -0.97 0.61 -0.98 0.71 0 0zm284.95 -390c-1.4,0.25 6.11,-0.88 -0.4,1.93l-2.1 1.08 -2.1 1.07 -1.87 0.8 -1.72 0.69 -1.59 0.7 -1.47 0.72 -1.34 0.75 -1.22 0.75 -1.09 0.79 -0.97 0.79 -0.83 0.82 -0.77 0.89 -0.75 1.04 -0.74 1.17 -0.73 1.31 -0.71 1.45 -0.69 1.59 -0.68 1.72 -0.66 1.87 -0.65 2 -0.63 2.14 -0.61 2.27 -0.59 2.42 -0.58 2.55 -0.55 2.68 -0.54 2.82 -0.52 2.96 -38.44 212.63 -1 5.29 -1.08 5.21 -1.14 5.12 -1.22 5.03 -1.29 4.94 -1.36 4.85 -1.44 4.77 -1.51 4.67 -1.58 4.59 -1.66 4.49 -1.73 4.41 -1.8 4.32 -1.88 4.23 -1.94 4.14 -2.02 4.05 -2.1 3.96 -2.16 3.87 -2.24 3.78 -2.31 3.69 -2.38 3.61 -2.46 3.51 -2.53 3.43 -2.6 3.33 -2.67 3.25 -2.74 3.15 -24.71 27.27 2.95 -3.39 2.88 -3.49 2.79 -3.58 2.72 -3.69 2.64 -3.77 2.56 -3.88 2.49 -3.97 2.4 -4.07 2.33 -4.16 2.25 -4.26 2.18 -4.36 2.09 -4.45 2.02 -4.54 1.93 -4.65 1.86 -4.73 1.78 -4.84 1.71 -4.93 1.62 -5.03 1.55 -5.12 1.46 -5.21 1.39 -5.32 1.31 -5.41 1.23 -5.5 1.15 -5.6 1.08 -5.69 41.34 -228.64 0.55 -3.18 0.58 -3.03 0.6 -2.89 0.62 -2.74 0.64 -2.59 0.65 -2.45 0.68 -2.3 0.69 -2.15 0.71 -2.01 0.73 -1.85 0.75 -1.71 0.76 -1.56 0.78 -1.41 0.8 -1.26 0.81 -1.11 0.83 -0.96 0.9 -0.88 1.03 -0.86 1.18 -0.84 1.3 -0.81 1.45 -0.8 1.58 -0.78 1.71 -0.76 1.85 -0.74 1.98 -0.72 2.12 -0.69 2.25 -0.68 2.39 -0.66 2.52 -0.64 2.65 -0.63 2.79 -0.6 1.62 -0.19 1.63 -0.2 1.62 -0.2 1.63 -0.2zm-156.54 303.45l45.01 -251.12c1.23,-7.15 1.84,-13.35 1.84,-18.49 0,-18.29 -13.94,-29.29 -41.65,-33 -17,-2.27 -49.38,-9.79 -49.38,-13.26 0,-4.31 9.94,-0.88 18.55,-1.48 2.25,-0.16 26.48,0.87 32.4,0.98l11.14 0.21c15.01,1.05 33.38,1.58 55.12,1.58 20.67,0 37.97,-0.53 52.06,-1.58l13.47 -0.95c7.51,-0.42 12.25,-0.63 14.4,-0.63 10.72,0 42.08,-3.8 42.1,0.47 0.01,3.3 -28.97,11.16 -34.91,12.46l-7.19 1.57c-15.93,3.05 -26.18,6.94 -30.62,11.67 -4.45,4.72 -8.27,15.86 -11.18,33.2l-41.34 228.64c-11.03,61.25 -35.53,106.22 -73.19,134.7 -33.54,25.42 -67.83,38.14 -102.74,38.14 -11.64,0 -21.44,-1.58 -29.4,-4.73 -7.97,-3.15 -11.79,-7.04 -11.49,-11.66 0.62,-9.78 3.68,-19.34 9.34,-28.79 5.67,-9.36 11.03,-14.08 15.93,-14.08 5.36,0 10.41,4.41 15.16,13.13 6.89,12.29 18.22,18.39 34.14,18.39 17.15,0 31.69,-7.88 43.64,-23.75 10.87,-14.18 20.36,-44.76 28.79,-91.62z"/>
   <path id="1" class="fil1 str0" d="M49.68 449.72l35.05 -27.45 0.92 -0.67 0.9 -0.57 0.9 -0.46 0.89 -0.36 0.88 -0.26 0.87 -0.15 0.86 -0.05 0.93 0.05 0.92 0.14 0.92 0.24 0.91 0.34 0.9 0.43 0.9 0.53 0.89 0.62 0.89 0.71 0.88 0.82 0.87 0.9 0.86 1.01 0.86 1.09 0.85 1.2 0.84 1.28 0.84 1.38 0.83 1.47 1.25 2.08 1.35 1.94 1.44 1.81 1.55 1.67 1.63 1.54 1.74 1.4 1.84 1.27 1.93 1.13 2.03 1 2.13 0.87 2.23 0.73 2.33 0.6 2.43 0.46 2.53 0.34 2.62 0.2 2.73 0.06 1.49 -0.02 1.47 -0.06 1.46 -0.11 1.44 -0.15 1.44 -0.19 1.41 -0.24 1.41 -0.28 1.38 -0.32 1.38 -0.37 1.36 -0.41 1.35 -0.45 1.33 -0.49 2.05 -0.54 -13.95 18.63 -1.97 1.14 -1.25 1.09 -1.26 1.04 -1.28 1 -1.3 0.95 -1.31 0.9 -1.32 0.86 -1.34 0.81 -1.36 0.76 -1.37 0.72 -1.39 0.67 -1.4 0.63 -1.41 0.58 -1.44 0.53 -1.44 0.49 -1.47 0.44 -1.48 0.39 -1.49 0.35 -1.51 0.3 -1.52 0.25 -1.54 0.21 -1.55 0.16 -1.57 0.12 -1.59 0.06 -1.6 0.03 -2.93 -0.07 -2.82 -0.22 -2.72 -0.36 -2.61 -0.5 -2.51 -0.64 -2.39 -0.79 -2.29 -0.93 -2.19 -1.07 -2.08 -1.23 -1.97 -1.36 -1.87 -1.51 -1.76 -1.65 -1.66 -1.8 -1.55 -1.94 -1.45 -2.09 -1.34 -2.23 -0.9 -1.58 -0.9 -1.49 -0.91 -1.38 -0.91 -1.28 -0.92 -1.18 -0.93 -1.08 -0.94 -0.97 -0.94 -0.88 -0.95 -0.77 -0.96 -0.67 -0.97 -0.56 -0.97 -0.47 -0.98 -0.36 -0.99 -0.26 -0.99 -0.15 -1 -0.05 -0.93 0.05 -0.93 0.17 -0.95 0.27 -0.95 0.39 -0.97 0.5 -0.97 0.61 -0.98 0.71m284.95 -390c-1.4,0.25 6.11,-0.88 -0.4,1.93l-2.1 1.08 -2.1 1.07 -1.87 0.8 -1.72 0.69 -1.59 0.7 -1.47 0.72 -1.34 0.75 -1.22 0.75 -1.09 0.79 -0.97 0.79 -0.83 0.82 -0.77 0.89 -0.75 1.04 -0.74 1.17 -0.73 1.31 -0.71 1.45 -0.69 1.59 -0.68 1.72 -0.66 1.87 -0.65 2 -0.63 2.14 -0.61 2.27 -0.59 2.42 -0.58 2.55 -0.55 2.68 -0.54 2.82 -0.52 2.96 -38.44 212.63 -1 5.29 -1.08 5.21 -1.14 5.12 -1.22 5.03 -1.29 4.94 -1.36 4.85 -1.44 4.77 -1.51 4.67 -1.58 4.59 -1.66 4.49 -1.73 4.41 -1.8 4.32 -1.88 4.23 -1.94 4.14 -2.02 4.05 -2.1 3.96 -2.16 3.87 -2.24 3.78 -2.31 3.69 -2.38 3.61 -2.46 3.51 -2.53 3.43 -2.6 3.33 -2.67 3.25 -2.74 3.15 -24.71 27.27 2.95 -3.39 2.88 -3.49 2.79 -3.58 2.72 -3.69 2.64 -3.77 2.56 -3.88 2.49 -3.97 2.4 -4.07 2.33 -4.16 2.25 -4.26 2.18 -4.36 2.09 -4.45 2.02 -4.54 1.93 -4.65 1.86 -4.73 1.78 -4.84 1.71 -4.93 1.62 -5.03 1.55 -5.12 1.46 -5.21 1.39 -5.32 1.31 -5.41 1.23 -5.5 1.15 -5.6 1.08 -5.69 41.34 -228.64 0.55 -3.18 0.58 -3.03 0.6 -2.89 0.62 -2.74 0.64 -2.59 0.65 -2.45 0.68 -2.3 0.69 -2.15 0.71 -2.01 0.73 -1.85 0.75 -1.71 0.76 -1.56 0.78 -1.41 0.8 -1.26 0.81 -1.11 0.83 -0.96 0.9 -0.88 1.03 -0.86 1.18 -0.84 1.3 -0.81 1.45 -0.8 1.58 -0.78 1.71 -0.76 1.85 -0.74 1.98 -0.72 2.12 -0.69 2.25 -0.68 2.39 -0.66 2.52 -0.64 2.65 -0.63 2.79 -0.6 1.62 -0.19 1.63 -0.2 1.62 -0.2 1.63 -0.2zm-156.54 303.45l45.01 -251.12c1.23,-7.15 1.84,-13.35 1.84,-18.49 0,-18.29 -13.94,-29.29 -41.65,-33 -17,-2.27 -49.38,-9.79 -49.38,-13.26 0,-4.31 9.94,-0.88 18.55,-1.48 2.25,-0.16 26.48,0.87 32.4,0.98l11.14 0.21c15.01,1.05 33.38,1.58 55.12,1.58 20.67,0 37.97,-0.53 52.06,-1.58l13.47 -0.95c7.51,-0.42 12.25,-0.63 14.4,-0.63 10.72,0 42.08,-3.8 42.1,0.47 0.01,3.3 -28.97,11.16 -34.91,12.46l-7.19 1.57c-15.93,3.05 -26.18,6.94 -30.62,11.67 -4.45,4.72 -8.27,15.86 -11.18,33.2l-41.34 228.64c-11.03,61.25 -35.53,106.22 -73.19,134.7 -33.54,25.42 -67.83,38.14 -102.74,38.14 -11.64,0 -21.44,-1.58 -29.4,-4.73 -7.97,-3.15 -11.79,-7.04 -11.49,-11.66 0.62,-9.78 3.68,-19.34 9.34,-28.79 5.67,-9.36 11.03,-14.08 15.93,-14.08 5.36,0 10.41,4.41 15.16,13.13 6.89,12.29 18.22,18.39 34.14,18.39 17.15,0 31.69,-7.88 43.64,-23.75 10.87,-14.18 20.36,-44.76 28.79,-91.62z"/>
  </g>
 </g>
</svg>
